<mxfile host="Electron" modified="2023-11-20T10:26:05.816Z" agent="Mozilla/5.0 (Windows NT 10.0; Win64; x64) AppleWebKit/537.36 (KHTML, like Gecko) draw.io/22.0.3 Chrome/114.0.5735.289 Electron/25.8.4 Safari/537.36" etag="e_ywIhAlvY84HUF66k1r" version="22.0.3" type="device">
  <diagram name="第 1 页" id="r-X4WVuhDy7n_6hin7sT">
    <mxGraphModel dx="1036" dy="614" grid="1" gridSize="10" guides="1" tooltips="1" connect="1" arrows="1" fold="1" page="1" pageScale="1" pageWidth="200000" pageHeight="200000" math="0" shadow="0">
      <root>
        <mxCell id="0" />
        <mxCell id="1" parent="0" />
        <mxCell id="XeoY4RP-CWIzNBW1dNc5-17" style="rounded=0;orthogonalLoop=1;jettySize=auto;html=1;exitX=0.5;exitY=1;exitDx=0;exitDy=0;entryX=0.5;entryY=0;entryDx=0;entryDy=0;fontFamily=Helvetica;fontSize=12;fontColor=default;" edge="1" parent="1" source="XeoY4RP-CWIzNBW1dNc5-1" target="XeoY4RP-CWIzNBW1dNc5-5">
          <mxGeometry relative="1" as="geometry" />
        </mxCell>
        <mxCell id="XeoY4RP-CWIzNBW1dNc5-1" value="1" style="ellipse;whiteSpace=wrap;html=1;" vertex="1" parent="1">
          <mxGeometry x="440" y="100" width="60" height="60" as="geometry" />
        </mxCell>
        <mxCell id="XeoY4RP-CWIzNBW1dNc5-18" style="edgeStyle=none;shape=connector;rounded=0;orthogonalLoop=1;jettySize=auto;html=1;exitX=0;exitY=1;exitDx=0;exitDy=0;entryX=1;entryY=0;entryDx=0;entryDy=0;labelBackgroundColor=default;strokeColor=default;align=center;verticalAlign=middle;fontFamily=Helvetica;fontSize=12;fontColor=default;endArrow=classic;" edge="1" parent="1" source="XeoY4RP-CWIzNBW1dNc5-5" target="XeoY4RP-CWIzNBW1dNc5-6">
          <mxGeometry relative="1" as="geometry" />
        </mxCell>
        <mxCell id="XeoY4RP-CWIzNBW1dNc5-22" style="edgeStyle=none;shape=connector;rounded=0;orthogonalLoop=1;jettySize=auto;html=1;exitX=1;exitY=0.5;exitDx=0;exitDy=0;entryX=0;entryY=0;entryDx=0;entryDy=0;labelBackgroundColor=default;strokeColor=default;align=center;verticalAlign=middle;fontFamily=Helvetica;fontSize=12;fontColor=default;endArrow=classic;" edge="1" parent="1" source="XeoY4RP-CWIzNBW1dNc5-5" target="XeoY4RP-CWIzNBW1dNc5-8">
          <mxGeometry relative="1" as="geometry" />
        </mxCell>
        <mxCell id="XeoY4RP-CWIzNBW1dNc5-31" style="edgeStyle=none;shape=connector;rounded=0;orthogonalLoop=1;jettySize=auto;html=1;exitX=0.5;exitY=1;exitDx=0;exitDy=0;labelBackgroundColor=default;strokeColor=default;align=center;verticalAlign=middle;fontFamily=Helvetica;fontSize=12;fontColor=default;endArrow=classic;" edge="1" parent="1" source="XeoY4RP-CWIzNBW1dNc5-5" target="XeoY4RP-CWIzNBW1dNc5-14">
          <mxGeometry relative="1" as="geometry" />
        </mxCell>
        <mxCell id="XeoY4RP-CWIzNBW1dNc5-5" value="2" style="ellipse;whiteSpace=wrap;html=1;" vertex="1" parent="1">
          <mxGeometry x="440" y="210" width="60" height="60" as="geometry" />
        </mxCell>
        <mxCell id="XeoY4RP-CWIzNBW1dNc5-19" style="edgeStyle=none;shape=connector;rounded=0;orthogonalLoop=1;jettySize=auto;html=1;exitX=0;exitY=0;exitDx=0;exitDy=0;labelBackgroundColor=default;strokeColor=default;align=center;verticalAlign=middle;fontFamily=Helvetica;fontSize=12;fontColor=default;endArrow=classic;" edge="1" parent="1" source="XeoY4RP-CWIzNBW1dNc5-6" target="XeoY4RP-CWIzNBW1dNc5-7">
          <mxGeometry relative="1" as="geometry" />
        </mxCell>
        <mxCell id="XeoY4RP-CWIzNBW1dNc5-6" value="3" style="ellipse;whiteSpace=wrap;html=1;" vertex="1" parent="1">
          <mxGeometry x="340" y="310" width="60" height="60" as="geometry" />
        </mxCell>
        <mxCell id="XeoY4RP-CWIzNBW1dNc5-21" style="edgeStyle=none;shape=connector;rounded=0;orthogonalLoop=1;jettySize=auto;html=1;exitX=0.5;exitY=1;exitDx=0;exitDy=0;entryX=0;entryY=0.5;entryDx=0;entryDy=0;labelBackgroundColor=default;strokeColor=default;align=center;verticalAlign=middle;fontFamily=Helvetica;fontSize=12;fontColor=default;endArrow=classic;" edge="1" parent="1" source="XeoY4RP-CWIzNBW1dNc5-7" target="XeoY4RP-CWIzNBW1dNc5-6">
          <mxGeometry relative="1" as="geometry" />
        </mxCell>
        <mxCell id="XeoY4RP-CWIzNBW1dNc5-7" value="4" style="ellipse;whiteSpace=wrap;html=1;" vertex="1" parent="1">
          <mxGeometry x="210" y="220" width="60" height="60" as="geometry" />
        </mxCell>
        <mxCell id="XeoY4RP-CWIzNBW1dNc5-23" style="edgeStyle=none;shape=connector;rounded=0;orthogonalLoop=1;jettySize=auto;html=1;exitX=1;exitY=0.5;exitDx=0;exitDy=0;entryX=0;entryY=0.5;entryDx=0;entryDy=0;labelBackgroundColor=default;strokeColor=default;align=center;verticalAlign=middle;fontFamily=Helvetica;fontSize=12;fontColor=default;endArrow=classic;" edge="1" parent="1" source="XeoY4RP-CWIzNBW1dNc5-8" target="XeoY4RP-CWIzNBW1dNc5-9">
          <mxGeometry relative="1" as="geometry" />
        </mxCell>
        <mxCell id="XeoY4RP-CWIzNBW1dNc5-8" value="5" style="ellipse;whiteSpace=wrap;html=1;" vertex="1" parent="1">
          <mxGeometry x="560" y="270" width="60" height="60" as="geometry" />
        </mxCell>
        <mxCell id="XeoY4RP-CWIzNBW1dNc5-24" style="edgeStyle=none;shape=connector;rounded=0;orthogonalLoop=1;jettySize=auto;html=1;exitX=1;exitY=1;exitDx=0;exitDy=0;labelBackgroundColor=default;strokeColor=default;align=center;verticalAlign=middle;fontFamily=Helvetica;fontSize=12;fontColor=default;endArrow=classic;" edge="1" parent="1" source="XeoY4RP-CWIzNBW1dNc5-9" target="XeoY4RP-CWIzNBW1dNc5-10">
          <mxGeometry relative="1" as="geometry" />
        </mxCell>
        <mxCell id="XeoY4RP-CWIzNBW1dNc5-9" value="6" style="ellipse;whiteSpace=wrap;html=1;" vertex="1" parent="1">
          <mxGeometry x="680" y="250" width="60" height="60" as="geometry" />
        </mxCell>
        <mxCell id="XeoY4RP-CWIzNBW1dNc5-10" value="7" style="ellipse;whiteSpace=wrap;html=1;" vertex="1" parent="1">
          <mxGeometry x="760" y="350" width="60" height="60" as="geometry" />
        </mxCell>
        <mxCell id="XeoY4RP-CWIzNBW1dNc5-12" value="8" style="ellipse;whiteSpace=wrap;html=1;" vertex="1" parent="1">
          <mxGeometry x="890" y="410" width="60" height="60" as="geometry" />
        </mxCell>
        <mxCell id="XeoY4RP-CWIzNBW1dNc5-29" style="edgeStyle=none;shape=connector;rounded=0;orthogonalLoop=1;jettySize=auto;html=1;exitX=0.5;exitY=1;exitDx=0;exitDy=0;entryX=1;entryY=0;entryDx=0;entryDy=0;labelBackgroundColor=default;strokeColor=default;align=center;verticalAlign=middle;fontFamily=Helvetica;fontSize=12;fontColor=default;endArrow=classic;" edge="1" parent="1" source="XeoY4RP-CWIzNBW1dNc5-13" target="XeoY4RP-CWIzNBW1dNc5-12">
          <mxGeometry relative="1" as="geometry" />
        </mxCell>
        <mxCell id="XeoY4RP-CWIzNBW1dNc5-30" style="edgeStyle=none;shape=connector;rounded=0;orthogonalLoop=1;jettySize=auto;html=1;exitX=0;exitY=0.5;exitDx=0;exitDy=0;entryX=1;entryY=0.5;entryDx=0;entryDy=0;labelBackgroundColor=default;strokeColor=default;align=center;verticalAlign=middle;fontFamily=Helvetica;fontSize=12;fontColor=default;endArrow=classic;" edge="1" parent="1" source="XeoY4RP-CWIzNBW1dNc5-13" target="XeoY4RP-CWIzNBW1dNc5-1">
          <mxGeometry relative="1" as="geometry" />
        </mxCell>
        <mxCell id="XeoY4RP-CWIzNBW1dNc5-13" value="9" style="ellipse;whiteSpace=wrap;html=1;" vertex="1" parent="1">
          <mxGeometry x="950" y="230" width="60" height="60" as="geometry" />
        </mxCell>
        <mxCell id="XeoY4RP-CWIzNBW1dNc5-32" style="edgeStyle=none;shape=connector;rounded=0;orthogonalLoop=1;jettySize=auto;html=1;exitX=0.5;exitY=1;exitDx=0;exitDy=0;entryX=0.5;entryY=0;entryDx=0;entryDy=0;labelBackgroundColor=default;strokeColor=default;align=center;verticalAlign=middle;fontFamily=Helvetica;fontSize=12;fontColor=default;endArrow=classic;" edge="1" parent="1" source="XeoY4RP-CWIzNBW1dNc5-14" target="XeoY4RP-CWIzNBW1dNc5-16">
          <mxGeometry relative="1" as="geometry" />
        </mxCell>
        <mxCell id="XeoY4RP-CWIzNBW1dNc5-14" value="10" style="ellipse;whiteSpace=wrap;html=1;" vertex="1" parent="1">
          <mxGeometry x="450" y="380" width="60" height="60" as="geometry" />
        </mxCell>
        <mxCell id="XeoY4RP-CWIzNBW1dNc5-15" value="11" style="ellipse;whiteSpace=wrap;html=1;" vertex="1" parent="1">
          <mxGeometry x="600" y="430" width="60" height="60" as="geometry" />
        </mxCell>
        <mxCell id="XeoY4RP-CWIzNBW1dNc5-16" value="12" style="ellipse;whiteSpace=wrap;html=1;" vertex="1" parent="1">
          <mxGeometry x="450" y="500" width="60" height="60" as="geometry" />
        </mxCell>
        <mxCell id="XeoY4RP-CWIzNBW1dNc5-20" style="edgeStyle=none;shape=connector;rounded=0;orthogonalLoop=1;jettySize=auto;html=1;exitX=1;exitY=0;exitDx=0;exitDy=0;entryX=0.053;entryY=0.677;entryDx=0;entryDy=0;entryPerimeter=0;labelBackgroundColor=default;strokeColor=default;align=center;verticalAlign=middle;fontFamily=Helvetica;fontSize=12;fontColor=default;endArrow=classic;" edge="1" parent="1" source="XeoY4RP-CWIzNBW1dNc5-7" target="XeoY4RP-CWIzNBW1dNc5-1">
          <mxGeometry relative="1" as="geometry" />
        </mxCell>
        <mxCell id="XeoY4RP-CWIzNBW1dNc5-25" style="edgeStyle=none;shape=connector;rounded=0;orthogonalLoop=1;jettySize=auto;html=1;exitX=1;exitY=1;exitDx=0;exitDy=0;entryX=-0.033;entryY=0.283;entryDx=0;entryDy=0;entryPerimeter=0;labelBackgroundColor=default;strokeColor=default;align=center;verticalAlign=middle;fontFamily=Helvetica;fontSize=12;fontColor=default;endArrow=classic;" edge="1" parent="1" source="XeoY4RP-CWIzNBW1dNc5-10" target="XeoY4RP-CWIzNBW1dNc5-12">
          <mxGeometry relative="1" as="geometry" />
        </mxCell>
        <mxCell id="XeoY4RP-CWIzNBW1dNc5-27" style="edgeStyle=none;shape=connector;rounded=0;orthogonalLoop=1;jettySize=auto;html=1;exitX=0.5;exitY=0;exitDx=0;exitDy=0;entryX=0.233;entryY=0.99;entryDx=0;entryDy=0;entryPerimeter=0;labelBackgroundColor=default;strokeColor=default;align=center;verticalAlign=middle;fontFamily=Helvetica;fontSize=12;fontColor=default;endArrow=classic;" edge="1" parent="1" source="XeoY4RP-CWIzNBW1dNc5-12" target="XeoY4RP-CWIzNBW1dNc5-13">
          <mxGeometry relative="1" as="geometry" />
        </mxCell>
        <mxCell id="XeoY4RP-CWIzNBW1dNc5-28" style="edgeStyle=none;shape=connector;rounded=0;orthogonalLoop=1;jettySize=auto;html=1;exitX=0.5;exitY=0;exitDx=0;exitDy=0;entryX=1;entryY=0.703;entryDx=0;entryDy=0;entryPerimeter=0;labelBackgroundColor=default;strokeColor=default;align=center;verticalAlign=middle;fontFamily=Helvetica;fontSize=12;fontColor=default;endArrow=classic;" edge="1" parent="1" source="XeoY4RP-CWIzNBW1dNc5-9" target="XeoY4RP-CWIzNBW1dNc5-1">
          <mxGeometry relative="1" as="geometry" />
        </mxCell>
        <mxCell id="XeoY4RP-CWIzNBW1dNc5-33" style="edgeStyle=none;shape=connector;rounded=0;orthogonalLoop=1;jettySize=auto;html=1;exitX=1;exitY=0.5;exitDx=0;exitDy=0;entryX=0;entryY=0.377;entryDx=0;entryDy=0;entryPerimeter=0;labelBackgroundColor=default;strokeColor=default;align=center;verticalAlign=middle;fontFamily=Helvetica;fontSize=12;fontColor=default;endArrow=classic;" edge="1" parent="1" source="XeoY4RP-CWIzNBW1dNc5-14" target="XeoY4RP-CWIzNBW1dNc5-15">
          <mxGeometry relative="1" as="geometry" />
        </mxCell>
      </root>
    </mxGraphModel>
  </diagram>
</mxfile>
